<svg xmlns="http://www.w3.org/2000/svg" viewBox="0 0 1200 675" width="1200" height="675">
  <defs>
    <linearGradient id="bg" x1="0%" y1="0%" x2="100%" y2="100%">
      <stop offset="0%" stop-color="#0a0a0c" />
      <stop offset="100%" stop-color="#18181b" />
    </linearGradient>
    <linearGradient id="cyan-grad" x1="0%" y1="0%" x2="100%" y2="0%">
      <stop offset="0%" stop-color="#06b6d4" />
      <stop offset="100%" stop-color="#3b82f6" />
    </linearGradient>
  </defs>
  <rect width="1200" height="675" fill="url(#bg)" />
  <g transform="translate(180, 80)">
    <rect width="840" height="515" rx="12" fill="#121215" stroke="#27272a" stroke-width="2" />
    <rect width="840" height="42" rx="12" fill="#18181b" />
    <circle cx="25" cy="21" r="6" fill="#ef4444" opacity="0.8" />
    <circle cx="45" cy="21" r="6" fill="#f59e0b" opacity="0.8" />
    <circle cx="65" cy="21" r="6" fill="#10b981" opacity="0.8" />
    <text x="420" y="26" fill="#71717a" font-family="monospace" font-size="12" text-anchor="middle">store.tienda-nicho.local/product/auriculares-pro</text>
    <!-- Product detail view -->
    <rect x="40" y="70" width="380" height="400" rx="8" fill="#18181b" stroke="#27272a" stroke-width="1" />
    <rect x="60" y="90" width="340" height="280" rx="6" fill="#27272a" />
    <rect x="60" y="390" width="75" height="60" rx="4" fill="#27272a" />
    <rect x="145" y="390" width="75" height="60" rx="4" fill="#27272a" />
    <rect x="230" y="390" width="75" height="60" rx="4" fill="#27272a" />
    <!-- Info panel -->
    <rect x="460" y="70" width="340" height="400" rx="8" fill="#18181b" stroke="#27272a" stroke-width="1" />
    <rect x="490" y="100" width="220" height="24" rx="4" fill="#f4f4f5" />
    <rect x="490" y="135" width="120" height="28" rx="4" fill="#06b6d4" />
    <rect x="490" y="180" width="280" height="60" rx="4" fill="#27272a" />
    <rect x="490" y="260" width="280" height="42" rx="6" fill="url(#cyan-grad)" />
  </g>
  <g transform="translate(40, 40)">
    <rect width="185" height="32" rx="16" fill="#18181b" stroke="#06b6d4" stroke-width="1.5" />
    <circle cx="18" cy="16" r="5" fill="#06b6d4" />
    <text x="32" y="21" fill="#f4f4f5" font-family="system-ui, sans-serif" font-size="12" font-weight="600">PROYECTO DE EJEMPLO</text>
  </g>
</svg>
